<svg width="40" height="40" viewBox="0 0 40 40" fill="none" xmlns="http://www.w3.org/2000/svg">
<path d="M24.5002 11H15.5002C13.015 11 11.0002 13.0147 11.0002 15.5V24.5C11.0002 26.9853 13.015 29 15.5002 29H24.5002C26.9855 29 29.0002 26.9853 29.0002 24.5V15.5C29.0002 13.0147 26.9855 11 24.5002 11Z" stroke="white" stroke-width="2" stroke-linecap="round" stroke-linejoin="round"/>
<path d="M23.5991 19.433C23.7101 20.182 23.5822 20.947 23.2334 21.6191C22.8847 22.2913 22.3329 22.8363 21.6565 23.1767C20.9801 23.5172 20.2137 23.6357 19.4661 23.5154C18.7185 23.3951 18.0278 23.0421 17.4924 22.5067C16.957 21.9712 16.604 21.2806 16.4837 20.533C16.3634 19.7854 16.4819 19.0189 16.8223 18.3426C17.1628 17.6662 17.7078 17.1144 18.3799 16.7656C19.0521 16.4169 19.817 16.289 20.5661 16.4C21.3301 16.5133 22.0374 16.8693 22.5836 17.4155C23.1297 17.9617 23.4858 18.669 23.5991 19.433Z" stroke="white" stroke-width="2" stroke-linecap="round" stroke-linejoin="round"/>
<path d="M24.9504 15.0499H24.9614" stroke="white" stroke-width="1.6" stroke-linecap="round" stroke-linejoin="round"/>
</svg>
